<svg width="892" height="892" viewBox="0 0 892 892" fill="none" xmlns="http://www.w3.org/2000/svg">
<g clip-path="url(#clip0_788_2037)">
<path d="M618.397 500.749C634.612 440.231 696.817 404.317 757.335 420.533V420.533C763.387 422.155 766.978 428.375 765.357 434.427L716.911 615.229C700.695 675.747 638.49 711.661 577.972 695.445V695.445C571.921 693.824 568.329 687.603 569.951 681.551L618.397 500.749Z" fill="white"/>
<path d="M323.405 318.644C339.62 258.126 401.825 222.212 462.343 238.428V238.428C468.395 240.049 471.986 246.27 470.364 252.321L373.694 613.101C357.478 673.618 295.273 709.532 234.756 693.317V693.317C228.704 691.695 225.112 685.475 226.734 679.423L323.405 318.644Z" fill="white"/>
<path d="M45.8306 253.481C44.2091 247.429 47.8005 241.209 53.8523 239.587V239.587C114.37 223.372 176.575 259.286 192.791 319.803L289.682 681.408C291.304 687.46 287.712 693.68 281.661 695.302V695.302C221.143 711.518 158.938 675.604 142.722 615.086L45.8306 253.481Z" fill="url(#paint0_linear_788_2037)"/>
<path d="M401.471 253.481C399.85 247.429 403.441 241.209 409.493 239.587V239.587C470.011 223.372 532.215 259.286 548.431 319.803L645.323 681.408C646.944 687.46 643.353 693.68 637.301 695.302V695.302C576.783 711.518 514.579 675.604 498.363 615.086L401.471 253.481Z" fill="white"/>
<circle cx="741.678" cy="272.62" r="93.5902" transform="rotate(15 741.678 272.62)" fill="white"/>
<path d="M765.918 182.223V182.223C815.845 195.601 845.474 246.92 832.096 296.847V296.847C818.718 346.774 767.399 376.403 717.472 363.025V363.025L765.918 182.223Z" fill="#FF8C73"/>
</g>
<defs>
<linearGradient id="paint0_linear_788_2037" x1="220.716" y1="584.587" x2="42.8945" y2="210.226" gradientUnits="userSpaceOnUse">
<stop stop-color="white"/>
<stop offset="1" stop-color="#D9D9D9" stop-opacity="0"/>
</linearGradient>
<clipPath id="clip0_788_2037">
<rect width="892" height="892" fill="white"/>
</clipPath>
</defs>
</svg>
