<svg width="221" height="220" viewBox="0 0 221 220" fill="none" xmlns="http://www.w3.org/2000/svg">
<rect x="39.6202" y="161.727" width="79.9424" height="14.3646" rx="7.18232" fill="#FF8C73"/>
<path d="M67.7264 85.0988C74.6068 93.2986 84.0925 93.6878 93.712 92.8263C81.5283 103.05 69.3429 113.274 57.1575 123.499C51.855 127.948 43.6864 132.052 40.8142 138.718C37.8975 145.481 42.8372 153.393 49.794 155.183C57.8932 157.269 65.0611 149.553 70.441 144.851C77.0664 139.059 83.5187 133.084 90.2603 127.427C89.1044 136.272 102.168 143.227 109.027 138.601C107.638 149.438 120.682 151.921 127.466 147.662C127.01 151.342 134.349 154.343 137.015 154.607C142.177 155.122 147.113 152.503 151.147 149.72C159.236 144.137 165.595 136.002 172.367 128.916C179.201 121.769 186.143 114.022 190.624 105.066C195.07 96.1757 192.048 88.0324 186.603 79.8231C180.063 69.9635 172 61.5491 162.481 54.5887C151.185 46.3266 140.512 49.7946 128.837 54.4885C116.151 59.5893 103.29 64.256 89.8948 67.3646C81.6844 69.2704 55.5873 70.632 67.7264 85.0988Z" fill="white"/>
</svg>
